<svg id="visual" viewBox="0 0 900 600" width="900" height="600" xmlns="http://www.w3.org/2000/svg" xmlns:xlink="http://www.w3.org/1999/xlink" version="1.1"><path d="M0 163L8.3 158C16.7 153 33.3 143 50 142C66.7 141 83.3 149 100 149C116.7 149 133.3 141 150 128C166.7 115 183.3 97 200 105C216.7 113 233.3 147 250 160C266.7 173 283.3 165 300 164C316.7 163 333.3 169 350 152C366.7 135 383.3 95 400 90C416.7 85 433.3 115 450 124C466.7 133 483.3 121 500 119C516.7 117 533.3 125 550 134C566.7 143 583.3 153 600 165C616.7 177 633.3 191 650 191C666.7 191 683.3 177 700 162C716.7 147 733.3 131 750 121C766.7 111 783.3 107 800 117C816.7 127 833.3 151 850 158C866.7 165 883.3 155 891.7 150L900 145L900 0L891.7 0C883.3 0 866.7 0 850 0C833.3 0 816.7 0 800 0C783.3 0 766.7 0 750 0C733.3 0 716.7 0 700 0C683.3 0 666.7 0 650 0C633.3 0 616.7 0 600 0C583.3 0 566.7 0 550 0C533.3 0 516.7 0 500 0C483.3 0 466.7 0 450 0C433.3 0 416.7 0 400 0C383.3 0 366.7 0 350 0C333.3 0 316.7 0 300 0C283.3 0 266.7 0 250 0C233.3 0 216.7 0 200 0C183.3 0 166.7 0 150 0C133.3 0 116.7 0 100 0C83.3 0 66.7 0 50 0C33.3 0 16.7 0 8.3 0L0 0Z" fill="#fe5757"></path><path d="M0 181L8.3 179C16.7 177 33.3 173 50 176C66.7 179 83.3 189 100 191C116.7 193 133.3 187 150 172C166.7 157 183.3 133 200 140C216.7 147 233.3 185 250 197C266.7 209 283.3 195 300 193C316.7 191 333.3 201 350 183C366.7 165 383.3 119 400 111C416.7 103 433.3 133 450 147C466.7 161 483.3 159 500 157C516.7 155 533.3 153 550 160C566.7 167 583.3 183 600 198C616.7 213 633.3 227 650 226C666.7 225 683.3 209 700 196C716.7 183 733.3 173 750 164C766.7 155 783.3 147 800 153C816.7 159 833.3 179 850 183C866.7 187 883.3 175 891.7 169L900 163L900 143L891.7 148C883.3 153 866.7 163 850 156C833.3 149 816.7 125 800 115C783.3 105 766.7 109 750 119C733.3 129 716.7 145 700 160C683.3 175 666.7 189 650 189C633.3 189 616.7 175 600 163C583.3 151 566.7 141 550 132C533.3 123 516.7 115 500 117C483.3 119 466.7 131 450 122C433.3 113 416.7 83 400 88C383.3 93 366.7 133 350 150C333.3 167 316.7 161 300 162C283.3 163 266.7 171 250 158C233.3 145 216.7 111 200 103C183.3 95 166.7 113 150 126C133.3 139 116.7 147 100 147C83.3 147 66.7 139 50 140C33.3 141 16.7 151 8.3 156L0 161Z" fill="#ef455e"></path><path d="M0 247L8.3 249C16.7 251 33.3 255 50 253C66.7 251 83.3 243 100 248C116.7 253 133.3 271 150 260C166.7 249 183.3 209 200 205C216.7 201 233.3 233 250 253C266.7 273 283.3 281 300 284C316.7 287 333.3 285 350 269C366.7 253 383.3 223 400 217C416.7 211 433.3 229 450 232C466.7 235 483.3 223 500 222C516.7 221 533.3 231 550 241C566.7 251 583.3 261 600 276C616.7 291 633.3 311 650 315C666.7 319 683.3 307 700 294C716.7 281 733.3 267 750 258C766.7 249 783.3 245 800 245C816.7 245 833.3 249 850 247C866.7 245 883.3 237 891.7 233L900 229L900 161L891.7 167C883.3 173 866.7 185 850 181C833.3 177 816.7 157 800 151C783.3 145 766.7 153 750 162C733.3 171 716.7 181 700 194C683.3 207 666.7 223 650 224C633.3 225 616.7 211 600 196C583.3 181 566.7 165 550 158C533.3 151 516.7 153 500 155C483.3 157 466.7 159 450 145C433.3 131 416.7 101 400 109C383.3 117 366.7 163 350 181C333.3 199 316.7 189 300 191C283.3 193 266.7 207 250 195C233.3 183 216.7 145 200 138C183.3 131 166.7 155 150 170C133.3 185 116.7 191 100 189C83.3 187 66.7 177 50 174C33.3 171 16.7 175 8.3 177L0 179Z" fill="#de3463"></path><path d="M0 307L8.3 308C16.7 309 33.3 311 50 303C66.7 295 83.3 277 100 279C116.7 281 133.3 303 150 293C166.7 283 183.3 241 200 240C216.7 239 233.3 279 250 297C266.7 315 283.3 311 300 308C316.7 305 333.3 303 350 291C366.7 279 383.3 257 400 257C416.7 257 433.3 279 450 284C466.7 289 483.3 277 500 270C516.7 263 533.3 261 550 267C566.7 273 583.3 287 600 309C616.7 331 633.3 361 650 366C666.7 371 683.3 351 700 336C716.7 321 733.3 311 750 299C766.7 287 783.3 273 800 269C816.7 265 833.3 271 850 270C866.7 269 883.3 261 891.7 257L900 253L900 227L891.7 231C883.3 235 866.7 243 850 245C833.3 247 816.7 243 800 243C783.3 243 766.7 247 750 256C733.3 265 716.7 279 700 292C683.3 305 666.7 317 650 313C633.3 309 616.7 289 600 274C583.3 259 566.7 249 550 239C533.3 229 516.7 219 500 220C483.3 221 466.7 233 450 230C433.3 227 416.7 209 400 215C383.3 221 366.7 251 350 267C333.3 283 316.7 285 300 282C283.3 279 266.7 271 250 251C233.3 231 216.7 199 200 203C183.3 207 166.7 247 150 258C133.3 269 116.7 251 100 246C83.3 241 66.7 249 50 251C33.3 253 16.7 249 8.3 247L0 245Z" fill="#ca2667"></path><path d="M0 355L8.3 357C16.7 359 33.3 363 50 352C66.7 341 83.3 315 100 317C116.7 319 133.3 349 150 342C166.7 335 183.3 291 200 289C216.7 287 233.3 327 250 341C266.7 355 283.3 343 300 338C316.7 333 333.3 335 350 326C366.7 317 383.3 297 400 295C416.7 293 433.3 309 450 312C466.7 315 483.3 305 500 305C516.7 305 533.3 315 550 321C566.7 327 583.3 329 600 345C616.7 361 633.3 391 650 395C666.7 399 683.3 377 700 367C716.7 357 733.3 359 750 357C766.7 355 783.3 349 800 340C816.7 331 833.3 319 850 312C866.7 305 883.3 303 891.7 302L900 301L900 251L891.7 255C883.3 259 866.7 267 850 268C833.3 269 816.7 263 800 267C783.3 271 766.7 285 750 297C733.3 309 716.7 319 700 334C683.3 349 666.7 369 650 364C633.3 359 616.7 329 600 307C583.3 285 566.7 271 550 265C533.3 259 516.7 261 500 268C483.3 275 466.7 287 450 282C433.3 277 416.7 255 400 255C383.3 255 366.7 277 350 289C333.3 301 316.7 303 300 306C283.3 309 266.7 313 250 295C233.3 277 216.7 237 200 238C183.3 239 166.7 281 150 291C133.3 301 116.7 279 100 277C83.3 275 66.7 293 50 301C33.3 309 16.7 307 8.3 306L0 305Z" fill="#c62368"></path><path d="M0 409L8.3 408C16.7 407 33.3 405 50 393C66.7 381 83.3 359 100 359C116.7 359 133.3 381 150 375C166.7 369 183.3 335 200 334C216.7 333 233.3 365 250 379C266.7 393 283.3 389 300 388C316.7 387 333.3 389 350 374C366.7 359 383.3 327 400 324C416.7 321 433.3 347 450 354C466.7 361 483.3 349 500 350C516.7 351 533.3 365 550 371C566.7 377 583.3 375 600 387C616.7 399 633.3 425 650 428C666.7 431 683.3 411 700 401C716.7 391 733.3 391 750 387C766.7 383 783.3 375 800 365C816.7 355 833.3 343 850 335C866.7 327 883.3 323 891.7 321L900 319L900 299L891.7 300C883.3 301 866.7 303 850 310C833.3 317 816.7 329 800 338C783.3 347 766.7 353 750 355C733.3 357 716.7 355 700 365C683.3 375 666.7 397 650 393C633.3 389 616.7 359 600 343C583.3 327 566.7 325 550 319C533.3 313 516.7 303 500 303C483.3 303 466.7 313 450 310C433.3 307 416.7 291 400 293C383.3 295 366.7 315 350 324C333.3 333 316.7 331 300 336C283.3 341 266.7 353 250 339C233.3 325 216.7 285 200 287C183.3 289 166.7 333 150 340C133.3 347 116.7 317 100 315C83.3 313 66.7 339 50 350C33.3 361 16.7 357 8.3 355L0 353Z" fill="#ca2667"></path><path d="M0 541L8.3 535C16.7 529 33.3 517 50 506C66.7 495 83.3 485 100 485C116.7 485 133.3 495 150 496C166.7 497 183.3 489 200 495C216.7 501 233.3 521 250 519C266.7 517 283.3 493 300 480C316.7 467 333.3 465 350 465C366.7 465 383.3 467 400 466C416.7 465 433.3 461 450 465C466.7 469 483.3 481 500 488C516.7 495 533.3 497 550 493C566.7 489 583.3 479 600 484C616.7 489 633.3 509 650 512C666.7 515 683.3 501 700 498C716.7 495 733.3 503 750 507C766.7 511 783.3 511 800 508C816.7 505 833.3 499 850 499C866.7 499 883.3 505 891.7 508L900 511L900 317L891.7 319C883.3 321 866.7 325 850 333C833.3 341 816.7 353 800 363C783.3 373 766.7 381 750 385C733.3 389 716.7 389 700 399C683.3 409 666.7 429 650 426C633.3 423 616.7 397 600 385C583.3 373 566.7 375 550 369C533.3 363 516.7 349 500 348C483.3 347 466.7 359 450 352C433.3 345 416.7 319 400 322C383.3 325 366.7 357 350 372C333.3 387 316.7 385 300 386C283.3 387 266.7 391 250 377C233.3 363 216.7 331 200 332C183.3 333 166.7 367 150 373C133.3 379 116.7 357 100 357C83.3 357 66.7 379 50 391C33.3 403 16.7 405 8.3 406L0 407Z" fill="#de3463"></path><path d="M0 577L8.3 571C16.7 565 33.3 553 50 552C66.7 551 83.3 561 100 566C116.7 571 133.3 571 150 569C166.7 567 183.3 563 200 565C216.7 567 233.3 575 250 574C266.7 573 283.3 563 300 558C316.7 553 333.3 553 350 553C366.7 553 383.3 553 400 550C416.7 547 433.3 541 450 539C466.7 537 483.3 539 500 541C516.7 543 533.3 545 550 546C566.7 547 583.3 547 600 553C616.7 559 633.3 571 650 573C666.7 575 683.3 567 700 565C716.7 563 733.3 567 750 569C766.7 571 783.3 571 800 568C816.7 565 833.3 559 850 557C866.7 555 883.3 557 891.7 558L900 559L900 509L891.7 506C883.3 503 866.7 497 850 497C833.3 497 816.7 503 800 506C783.3 509 766.7 509 750 505C733.3 501 716.7 493 700 496C683.3 499 666.7 513 650 510C633.3 507 616.7 487 600 482C583.3 477 566.7 487 550 491C533.3 495 516.7 493 500 486C483.3 479 466.7 467 450 463C433.3 459 416.7 463 400 464C383.3 465 366.7 463 350 463C333.3 463 316.7 465 300 478C283.3 491 266.7 515 250 517C233.3 519 216.7 499 200 493C183.3 487 166.7 495 150 494C133.3 493 116.7 483 100 483C83.3 483 66.7 493 50 504C33.3 515 16.7 527 8.3 533L0 539Z" fill="#ef455e"></path><path d="M0 601L8.3 601C16.7 601 33.3 601 50 601C66.7 601 83.3 601 100 601C116.7 601 133.3 601 150 601C166.7 601 183.3 601 200 601C216.7 601 233.3 601 250 601C266.7 601 283.3 601 300 601C316.7 601 333.3 601 350 601C366.7 601 383.3 601 400 601C416.7 601 433.3 601 450 601C466.7 601 483.3 601 500 601C516.7 601 533.3 601 550 601C566.7 601 583.3 601 600 601C616.7 601 633.3 601 650 601C666.7 601 683.3 601 700 601C716.7 601 733.3 601 750 601C766.7 601 783.3 601 800 601C816.7 601 833.3 601 850 601C866.7 601 883.3 601 891.7 601L900 601L900 557L891.7 556C883.3 555 866.7 553 850 555C833.3 557 816.7 563 800 566C783.3 569 766.7 569 750 567C733.3 565 716.7 561 700 563C683.3 565 666.7 573 650 571C633.3 569 616.7 557 600 551C583.3 545 566.7 545 550 544C533.3 543 516.7 541 500 539C483.3 537 466.7 535 450 537C433.3 539 416.7 545 400 548C383.3 551 366.7 551 350 551C333.3 551 316.7 551 300 556C283.3 561 266.7 571 250 572C233.3 573 216.7 565 200 563C183.3 561 166.7 565 150 567C133.3 569 116.7 569 100 564C83.3 559 66.7 549 50 550C33.3 551 16.7 563 8.3 569L0 575Z" fill="#fe5757"></path></svg>